<svg width="32" height="32" viewBox="0 0 32 32" fill="none" xmlns="http://www.w3.org/2000/svg">
<circle opacity="0.15" cx="16" cy="16" r="16" fill="#0275D8"/>
<path fill-rule="evenodd" clip-rule="evenodd" d="M16 8C11.5733 8 8 11.5733 8 16C8 20.4267 11.5733 24 16 24C20.4267 24 24 20.4267 24 16C24 11.5733 20.4267 8 16 8ZM16.7614 14.6001V20.3636H15.2166V14.6001H16.7614ZM15.1261 13.1087C15.1261 12.8778 15.2024 12.6879 15.3551 12.5387C15.5114 12.3896 15.7227 12.315 15.989 12.315C16.2518 12.315 16.4613 12.3896 16.6175 12.5387C16.7738 12.6879 16.8519 12.8778 16.8519 13.1087C16.8519 13.343 16.772 13.5348 16.6122 13.6839C16.456 13.8331 16.2482 13.9077 15.989 13.9077C15.7298 13.9077 15.5202 13.8331 15.3604 13.6839C15.2042 13.5348 15.1261 13.343 15.1261 13.1087Z" fill="#0275D8"/>
</svg>
